<mxfile host="app.diagrams.net" modified="2023-06-06T06:35:52.703Z" agent="Mozilla/5.0 (Windows NT 10.0; Win64; x64) AppleWebKit/537.36 (KHTML, like Gecko) Chrome/114.0.0.0 Safari/537.36" etag="Uzcwv0xtXO_RHrbbVhv5" version="21.3.7" type="device">
  <diagram name="Page-1" id="M9RlrWPx-uVVOyv4R_0P">
    <mxGraphModel dx="2074" dy="1156" grid="1" gridSize="10" guides="1" tooltips="1" connect="1" arrows="1" fold="1" page="1" pageScale="1" pageWidth="850" pageHeight="1100" math="0" shadow="0">
      <root>
        <mxCell id="0" />
        <mxCell id="1" parent="0" />
        <mxCell id="FodPqLmfhO8lIBoT6G-H-1" value="Utilizator" style="swimlane;" vertex="1" parent="1">
          <mxGeometry x="60" y="180" width="375" height="610" as="geometry" />
        </mxCell>
        <mxCell id="FodPqLmfhO8lIBoT6G-H-3" value="" style="ellipse;html=1;shape=startState;fillColor=#000000;strokeColor=#ff0000;" vertex="1" parent="FodPqLmfhO8lIBoT6G-H-1">
          <mxGeometry x="40" y="40" width="30" height="30" as="geometry" />
        </mxCell>
        <mxCell id="FodPqLmfhO8lIBoT6G-H-4" value="" style="edgeStyle=orthogonalEdgeStyle;html=1;verticalAlign=bottom;endArrow=open;endSize=8;strokeColor=#ff0000;rounded=0;" edge="1" source="FodPqLmfhO8lIBoT6G-H-3" parent="FodPqLmfhO8lIBoT6G-H-1">
          <mxGeometry relative="1" as="geometry">
            <mxPoint x="55" y="130" as="targetPoint" />
          </mxGeometry>
        </mxCell>
        <mxCell id="FodPqLmfhO8lIBoT6G-H-5" value="Acceseaza pagina de meniu a restaurantului" style="rounded=1;whiteSpace=wrap;html=1;fillColor=#dae8fc;strokeColor=#6c8ebf;" vertex="1" parent="FodPqLmfhO8lIBoT6G-H-1">
          <mxGeometry x="10" y="130" width="120" height="60" as="geometry" />
        </mxCell>
        <mxCell id="FodPqLmfhO8lIBoT6G-H-10" value="" style="rhombus;whiteSpace=wrap;html=1;fillColor=#dae8fc;strokeColor=#6c8ebf;" vertex="1" parent="FodPqLmfhO8lIBoT6G-H-1">
          <mxGeometry x="130" y="240" width="80" height="80" as="geometry" />
        </mxCell>
        <mxCell id="FodPqLmfhO8lIBoT6G-H-11" value="A apasat pe alta optiune, pe back sau a inchis browserul?" style="text;html=1;align=center;verticalAlign=middle;resizable=0;points=[];autosize=1;strokeColor=none;fillColor=none;" vertex="1" parent="FodPqLmfhO8lIBoT6G-H-1">
          <mxGeometry x="10" y="210" width="330" height="30" as="geometry" />
        </mxCell>
        <mxCell id="FodPqLmfhO8lIBoT6G-H-13" value="" style="ellipse;html=1;shape=endState;fillColor=#000000;strokeColor=#ff0000;" vertex="1" parent="FodPqLmfhO8lIBoT6G-H-1">
          <mxGeometry x="40" y="330" width="30" height="30" as="geometry" />
        </mxCell>
        <mxCell id="FodPqLmfhO8lIBoT6G-H-16" value="" style="endArrow=classic;html=1;rounded=0;entryX=1;entryY=0;entryDx=0;entryDy=0;" edge="1" parent="FodPqLmfhO8lIBoT6G-H-1" source="FodPqLmfhO8lIBoT6G-H-10" target="FodPqLmfhO8lIBoT6G-H-13">
          <mxGeometry width="50" height="50" relative="1" as="geometry">
            <mxPoint x="220" y="-60" as="sourcePoint" />
            <mxPoint x="270" y="-110" as="targetPoint" />
          </mxGeometry>
        </mxCell>
        <mxCell id="FodPqLmfhO8lIBoT6G-H-17" value="da" style="text;html=1;align=center;verticalAlign=middle;resizable=0;points=[];autosize=1;strokeColor=none;fillColor=none;" vertex="1" parent="FodPqLmfhO8lIBoT6G-H-1">
          <mxGeometry x="70" y="265" width="40" height="30" as="geometry" />
        </mxCell>
        <mxCell id="FodPqLmfhO8lIBoT6G-H-18" value="" style="endArrow=classic;html=1;rounded=0;" edge="1" parent="FodPqLmfhO8lIBoT6G-H-1" source="FodPqLmfhO8lIBoT6G-H-10" target="FodPqLmfhO8lIBoT6G-H-19">
          <mxGeometry width="50" height="50" relative="1" as="geometry">
            <mxPoint x="150" y="440" as="sourcePoint" />
            <mxPoint x="200" y="390" as="targetPoint" />
          </mxGeometry>
        </mxCell>
        <mxCell id="FodPqLmfhO8lIBoT6G-H-19" value="" style="rhombus;whiteSpace=wrap;html=1;fillColor=#dae8fc;strokeColor=#6c8ebf;" vertex="1" parent="FodPqLmfhO8lIBoT6G-H-1">
          <mxGeometry x="148" y="420" width="80" height="80" as="geometry" />
        </mxCell>
        <mxCell id="FodPqLmfhO8lIBoT6G-H-21" value="A apasat pe un produs?" style="text;html=1;align=center;verticalAlign=middle;resizable=0;points=[];autosize=1;strokeColor=none;fillColor=none;" vertex="1" parent="FodPqLmfhO8lIBoT6G-H-1">
          <mxGeometry x="15" y="420" width="150" height="30" as="geometry" />
        </mxCell>
        <mxCell id="FodPqLmfhO8lIBoT6G-H-2" value="Sistem" style="swimlane;" vertex="1" parent="1">
          <mxGeometry x="435" y="180" width="360" height="610" as="geometry" />
        </mxCell>
        <mxCell id="FodPqLmfhO8lIBoT6G-H-6" value="Preia datele de pe server&amp;nbsp;" style="rounded=1;whiteSpace=wrap;html=1;fillColor=#dae8fc;strokeColor=#6c8ebf;" vertex="1" parent="FodPqLmfhO8lIBoT6G-H-2">
          <mxGeometry x="130" y="50" width="120" height="60" as="geometry" />
        </mxCell>
        <mxCell id="FodPqLmfhO8lIBoT6G-H-8" value="Afiseaza datele despre produse" style="rounded=1;whiteSpace=wrap;html=1;fillColor=#dae8fc;strokeColor=#6c8ebf;" vertex="1" parent="FodPqLmfhO8lIBoT6G-H-2">
          <mxGeometry x="130" y="150" width="120" height="60" as="geometry" />
        </mxCell>
        <mxCell id="FodPqLmfhO8lIBoT6G-H-9" value="" style="endArrow=classic;html=1;rounded=0;" edge="1" parent="FodPqLmfhO8lIBoT6G-H-2" source="FodPqLmfhO8lIBoT6G-H-6" target="FodPqLmfhO8lIBoT6G-H-8">
          <mxGeometry width="50" height="50" relative="1" as="geometry">
            <mxPoint x="70" y="290" as="sourcePoint" />
            <mxPoint x="120" y="240" as="targetPoint" />
          </mxGeometry>
        </mxCell>
        <mxCell id="FodPqLmfhO8lIBoT6G-H-22" value="Deschide pagina produsului" style="rounded=1;whiteSpace=wrap;html=1;fillColor=#dae8fc;strokeColor=#6c8ebf;" vertex="1" parent="FodPqLmfhO8lIBoT6G-H-2">
          <mxGeometry x="115" y="295" width="120" height="60" as="geometry" />
        </mxCell>
        <mxCell id="FodPqLmfhO8lIBoT6G-H-25" value="Continua navigarea" style="rounded=1;whiteSpace=wrap;html=1;fillColor=#dae8fc;strokeColor=#6c8ebf;" vertex="1" parent="FodPqLmfhO8lIBoT6G-H-2">
          <mxGeometry x="105" y="450" width="120" height="60" as="geometry" />
        </mxCell>
        <mxCell id="FodPqLmfhO8lIBoT6G-H-7" value="" style="endArrow=classic;html=1;rounded=0;entryX=0;entryY=0.5;entryDx=0;entryDy=0;" edge="1" parent="1" source="FodPqLmfhO8lIBoT6G-H-5" target="FodPqLmfhO8lIBoT6G-H-6">
          <mxGeometry width="50" height="50" relative="1" as="geometry">
            <mxPoint x="250" y="370" as="sourcePoint" />
            <mxPoint x="300" y="320" as="targetPoint" />
          </mxGeometry>
        </mxCell>
        <mxCell id="FodPqLmfhO8lIBoT6G-H-12" value="" style="endArrow=classic;html=1;rounded=0;exitX=0;exitY=0.5;exitDx=0;exitDy=0;" edge="1" parent="1" source="FodPqLmfhO8lIBoT6G-H-8" target="FodPqLmfhO8lIBoT6G-H-10">
          <mxGeometry width="50" height="50" relative="1" as="geometry">
            <mxPoint x="520" y="460" as="sourcePoint" />
            <mxPoint x="570" y="410" as="targetPoint" />
          </mxGeometry>
        </mxCell>
        <mxCell id="FodPqLmfhO8lIBoT6G-H-20" value="nu" style="text;html=1;align=center;verticalAlign=middle;resizable=0;points=[];autosize=1;strokeColor=none;fillColor=none;" vertex="1" parent="1">
          <mxGeometry x="240" y="538" width="40" height="30" as="geometry" />
        </mxCell>
        <mxCell id="FodPqLmfhO8lIBoT6G-H-23" value="" style="endArrow=classic;html=1;rounded=0;" edge="1" parent="1" source="FodPqLmfhO8lIBoT6G-H-19" target="FodPqLmfhO8lIBoT6G-H-22">
          <mxGeometry width="50" height="50" relative="1" as="geometry">
            <mxPoint x="320" y="620" as="sourcePoint" />
            <mxPoint x="370" y="570" as="targetPoint" />
          </mxGeometry>
        </mxCell>
        <mxCell id="FodPqLmfhO8lIBoT6G-H-24" value="da" style="text;html=1;align=center;verticalAlign=middle;resizable=0;points=[];autosize=1;strokeColor=none;fillColor=none;" vertex="1" parent="1">
          <mxGeometry x="330" y="558" width="40" height="30" as="geometry" />
        </mxCell>
        <mxCell id="FodPqLmfhO8lIBoT6G-H-26" value="" style="endArrow=classic;html=1;rounded=0;" edge="1" parent="1" source="FodPqLmfhO8lIBoT6G-H-19" target="FodPqLmfhO8lIBoT6G-H-25">
          <mxGeometry width="50" height="50" relative="1" as="geometry">
            <mxPoint x="-190" y="570" as="sourcePoint" />
            <mxPoint x="-140" y="520" as="targetPoint" />
          </mxGeometry>
        </mxCell>
        <mxCell id="FodPqLmfhO8lIBoT6G-H-27" value="nu" style="text;html=1;align=center;verticalAlign=middle;resizable=0;points=[];autosize=1;strokeColor=none;fillColor=none;" vertex="1" parent="1">
          <mxGeometry x="310" y="648" width="40" height="30" as="geometry" />
        </mxCell>
      </root>
    </mxGraphModel>
  </diagram>
</mxfile>
